<svg version="1.1" id="Layer_1" xmlns="http://www.w3.org/2000/svg" xmlns:xlink="http://www.w3.org/1999/xlink" x="0px" y="0px"
	 width="100%" viewBox="0 0 1024 1024" enable-background="new 0 0 1024 1024" xml:space="preserve">
<path fill="#090A0D" opacity="1.000000" stroke="none" 
	d="
M572.000000,1025.000000 
	C381.333344,1025.000000 191.166672,1025.000000 1.000000,1025.000000 
	C1.000000,683.666687 1.000000,342.333344 1.000000,1.000000 
	C342.333344,1.000000 683.666687,1.000000 1025.000000,1.000000 
	C1025.000000,342.333344 1025.000000,683.666687 1025.000000,1025.000000 
	C874.166687,1025.000000 723.333313,1025.000000 572.000000,1025.000000 
M362.030121,779.574951 
	C362.339661,779.769775 362.649200,779.964600 362.953857,780.057129 
	C362.953857,780.057129 362.854095,780.080200 363.051392,780.588684 
	C363.479095,780.920288 363.906799,781.251892 364.475647,781.676086 
	C364.475647,781.676086 364.633514,781.735718 365.105133,782.075623 
	C366.074860,782.741516 367.044586,783.407410 368.394714,784.531433 
	C368.962555,784.676819 369.530426,784.822266 370.583099,784.982361 
	C371.035583,785.143921 371.488098,785.305481 372.316193,786.198425 
	C374.809113,786.798340 377.301422,787.919861 379.795013,787.922668 
	C461.212952,788.013977 542.631042,787.997742 624.049072,787.997559 
	C654.518433,787.997498 684.987854,788.029480 715.456787,787.918518 
	C717.289307,787.911865 719.117676,786.765442 721.496033,785.881958 
	C721.900574,785.886169 722.305115,785.890442 723.193787,785.791748 
	C723.527039,785.693420 723.781860,785.494568 724.587585,785.024597 
	C725.010864,784.928345 725.434204,784.832092 726.237183,785.255371 
	C726.815552,784.474670 727.393921,783.693970 728.259033,782.280396 
	C736.010437,778.585144 740.513977,772.462219 742.240234,763.604797 
	C742.295227,763.437744 742.350281,763.270630 742.817627,763.101990 
	C742.817627,763.101990 743.205322,762.961609 743.682922,762.302917 
	C743.786987,760.816345 743.981995,759.329773 743.982178,757.843201 
	C743.996155,625.011536 743.998474,492.179840 743.959167,359.348175 
	C743.958679,357.595245 743.418396,355.842407 742.930664,353.596588 
	C742.660950,353.377533 742.391174,353.158447 741.967712,352.919830 
	C741.967712,352.919830 741.899536,353.059052 741.967896,352.271759 
	C740.852539,349.163879 739.737183,346.056000 738.486206,342.422607 
	C738.008667,341.912842 737.531067,341.403076 737.034363,340.971161 
	C737.034363,340.971161 737.114136,340.979126 736.938416,340.453278 
	C736.632324,340.264252 736.326294,340.075226 736.017761,339.982300 
	C736.017761,339.982300 736.113831,339.978455 735.938416,339.452637 
	C735.632568,339.262177 735.326660,339.071747 735.027893,338.964264 
	C735.027893,338.964264 735.109070,338.946045 734.827454,338.320953 
	C728.857727,332.121796 720.999390,331.386017 713.142944,331.239441 
	C700.572449,331.004944 687.994019,331.221710 675.419495,331.143585 
	C674.199646,331.135986 672.984436,330.398041 671.987244,329.082397 
	C671.936462,307.060699 671.885681,285.039032 671.903381,262.226074 
	C669.511780,250.786819 663.654846,242.931091 651.353882,240.983917 
	C650.909790,240.923706 650.465637,240.863495 650.362061,240.390076 
	C650.597229,240.042984 650.832336,239.695892 651.067505,239.348831 
	C650.025452,239.608658 648.983398,239.868484 647.061462,240.039200 
	C644.701416,239.982056 642.341431,239.924927 639.795776,239.587357 
	C639.536682,239.680954 639.277527,239.774567 638.091309,240.030563 
	C630.718506,239.973083 623.345642,239.915588 615.522156,239.407547 
	C614.356506,239.558624 613.190796,239.709702 611.116394,240.020935 
	C607.735168,239.967133 604.354004,239.913345 600.393494,239.369293 
	C597.938110,239.532379 595.482666,239.695465 592.132812,240.016312 
	C589.412537,239.962067 586.692200,239.907822 583.333862,239.345596 
	C578.898132,239.517212 574.462402,239.688828 569.098389,240.019745 
	C562.723145,239.966156 556.347961,239.912567 549.415527,239.375504 
	C547.286072,239.537094 545.156555,239.698685 542.098755,240.022308 
	C521.390259,239.966827 500.681763,239.911362 479.522247,239.406174 
	C478.357056,239.556412 477.191864,239.706650 475.098053,240.016876 
	C461.056641,239.964325 447.015198,239.911789 432.478699,239.394684 
	C430.994690,239.548569 429.510651,239.702454 427.098450,240.019150 
	C394.056458,239.964783 361.014435,239.910400 327.521637,239.405930 
	C326.356781,239.557022 325.191895,239.708099 323.101288,240.019043 
	C317.727386,240.324478 312.353485,240.629913 306.219604,240.994492 
	C304.374878,241.555267 302.530121,242.116058 300.848938,242.667755 
	C300.848938,242.667755 300.769226,242.524658 300.180695,242.709839 
	C299.669403,243.018219 299.158112,243.326614 298.811310,243.676620 
	C298.811310,243.676620 298.762512,243.514099 298.230743,243.680695 
	C297.743439,243.917160 297.256165,244.153625 296.502777,244.323624 
	C296.502777,244.323624 296.279175,244.482544 295.902130,244.824295 
	C295.572418,245.205963 295.242737,245.587616 294.980316,245.991287 
	C294.980316,245.991287 294.985870,245.920715 294.439392,246.048615 
	C294.234467,246.350296 294.029541,246.651978 293.961426,246.961639 
	C293.961426,246.961639 293.955750,246.824738 293.423370,247.023132 
	C293.223480,247.334854 293.023560,247.646576 292.961670,247.962646 
	C292.961670,247.962646 292.952606,247.824829 292.426270,248.026581 
	C292.240997,248.343887 292.055725,248.661194 291.981232,248.978516 
	C291.981232,248.978516 291.974030,248.867950 291.446289,249.052917 
	C291.247742,249.357239 291.049194,249.661560 290.948944,249.962936 
	C290.948944,249.962936 290.930206,249.866364 290.342010,250.164642 
	C289.716278,251.316162 289.090546,252.467682 288.488953,253.704071 
	C288.488953,253.704071 288.568512,253.665909 288.093903,254.182083 
	C287.329834,256.457703 286.565796,258.733307 285.400726,261.002472 
	C285.400726,261.002472 284.999664,260.999664 285.000000,261.000000 
	C285.000000,261.000000 285.001221,261.001221 284.961945,260.515045 
	C284.805389,260.260590 284.648834,260.006134 284.492249,259.751678 
	C284.327759,260.169403 284.163269,260.587158 283.662476,261.769684 
	C283.441650,263.564728 283.027924,265.359772 283.027527,267.154846 
	C282.997498,403.706024 282.996307,540.257202 283.041779,676.808350 
	C283.042358,678.539856 283.670746,680.271057 284.004883,682.779053 
	C284.628174,684.200500 285.251465,685.621948 285.997498,686.859558 
	C285.997498,686.859558 286.191803,686.965027 286.140259,687.599121 
	C286.467865,688.589172 286.795502,689.579285 287.215210,691.101135 
	C287.417969,691.389221 287.620758,691.677307 288.147003,692.578430 
	C292.035004,696.103638 295.923004,699.628906 300.054626,703.647827 
	C300.929871,703.949341 301.805115,704.250916 302.969452,704.422363 
	C302.969452,704.422363 302.873260,704.120300 303.250000,704.834717 
	C305.321533,705.205994 307.391144,705.885864 309.464935,705.898987 
	C324.186340,705.992004 338.908569,705.948547 353.792023,705.948547 
	C353.792023,720.046875 353.737823,733.777161 353.815857,747.506653 
	C353.852539,753.959717 354.143738,760.411377 354.570648,767.520081 
	C354.871887,768.384277 355.173096,769.248474 355.607819,770.587708 
	C355.875244,771.179993 356.142639,771.772278 356.473114,772.404602 
	C356.473114,772.404602 356.429840,772.465576 356.711884,772.992920 
	C357.265045,773.805420 357.818207,774.617920 358.453857,775.461975 
	C358.453857,775.461975 358.435608,775.548279 358.758118,776.064087 
	C359.482391,776.754944 360.206665,777.445801 360.949890,778.039185 
	C360.949890,778.039185 360.850555,778.036194 361.036041,778.566528 
	C361.344391,778.763916 361.652740,778.961365 361.962952,779.034729 
	C361.962952,779.034729 361.839294,779.045410 362.030121,779.574951 
z"/>
<path fill="#BAFFAC" opacity="1.000000" stroke="none" 
	d="
M738.621826,342.948151 
	C739.737183,346.056000 740.852539,349.163879 741.649048,352.962646 
	C741.229614,354.806580 741.040955,355.959595 741.040833,357.112640 
	C741.029175,491.169281 741.028381,625.225952 741.069275,759.282593 
	C741.069763,760.860718 741.618042,762.438782 741.910522,764.016846 
	C740.513977,772.462219 736.010437,778.585144 727.794922,782.645020 
	C726.839661,783.585083 726.348572,784.160522 725.857544,784.735962 
	C725.434204,784.832092 725.010864,784.928345 724.004028,785.078125 
	C723.183472,785.386047 722.946594,785.640381 722.709656,785.894714 
	C722.305115,785.890442 721.900574,785.886169 721.163391,785.897949 
	C720.830750,785.914001 721.039185,785.753601 720.700806,785.511414 
	C711.890869,785.146484 703.419373,785.023804 694.865662,784.760620 
	C694.457275,784.426880 694.213196,784.520935 693.580811,784.940063 
	C652.381714,784.952637 611.653198,784.927673 570.637329,784.638672 
	C567.257690,784.552185 564.165344,784.729675 560.621460,784.941956 
	C557.754456,784.951721 555.338867,784.926636 552.625488,784.633423 
	C548.243164,784.545471 544.158569,784.725525 539.601929,784.941406 
	C527.732788,784.951843 516.335632,784.926575 504.798523,784.700439 
	C504.126068,784.633667 503.593567,784.767822 502.670837,784.936951 
	C501.498077,784.948303 500.715576,784.924683 499.752075,784.675964 
	C498.736145,784.601501 497.901276,784.752136 496.615784,784.939087 
	C493.754089,784.949829 491.342957,784.924316 488.750732,784.674194 
	C487.735413,784.599976 486.901123,784.750305 485.607788,784.937073 
	C482.077423,784.946716 479.006104,784.919922 475.795349,784.694214 
	C475.126404,784.626526 474.596924,784.757751 473.596039,784.927612 
	C453.725220,784.944031 434.325806,784.921814 414.694153,784.655640 
	C412.998596,784.575378 411.535370,784.739136 409.600220,784.939819 
	C398.425201,784.994568 387.722076,785.012451 376.617615,785.011292 
	C375.413605,785.043518 374.610962,785.094727 373.885193,785.139282 
	C373.962128,785.132690 373.945343,785.286194 373.763977,784.958069 
	C372.373505,784.435852 371.164398,784.241821 369.826050,783.719727 
	C368.009094,782.839722 366.321289,782.287720 364.633514,781.735718 
	C364.633514,781.735718 364.475647,781.676086 364.487427,781.298096 
	C363.950836,780.640076 363.402466,780.360107 362.854095,780.080200 
	C362.854095,780.080200 362.953857,780.057129 362.866547,779.838989 
	C362.465912,779.429016 362.152618,779.237244 361.839294,779.045410 
	C361.839294,779.045410 361.962952,779.034729 361.867188,778.832397 
	C361.464447,778.432068 361.157501,778.234131 360.850555,778.036194 
	C360.850555,778.036194 360.949890,778.039185 360.938965,777.726013 
	C360.097229,776.791321 359.266418,776.169800 358.435608,775.548218 
	C358.435608,775.548279 358.453857,775.461975 358.581909,775.096680 
	C357.949921,773.976135 357.189880,773.220886 356.429840,772.465576 
	C356.429840,772.465576 356.473114,772.404602 356.602661,772.103333 
	C356.312897,771.238953 355.893616,770.675781 355.474335,770.112671 
	C355.173096,769.248474 354.871887,768.384277 354.675964,766.862915 
	C354.781250,745.461731 354.781250,724.717712 354.781250,704.120300 
	C337.504700,704.120300 320.188965,704.120300 302.873260,704.120300 
	C302.873260,704.120300 302.969452,704.422363 302.804199,704.160889 
	C301.696320,703.650940 300.753662,703.402527 299.811005,703.154114 
	C295.923004,699.628906 292.035004,696.103638 287.999115,691.986694 
	C287.608521,691.119751 287.365814,690.844543 287.123108,690.569336 
	C286.795502,689.579285 286.467865,688.589172 286.432861,686.965454 
	C286.823975,685.012695 287.008606,683.693665 287.008698,682.374573 
	C287.013702,593.802368 286.817413,505.229614 287.064301,416.658112 
	C287.215790,362.326385 288.044098,307.996582 288.568481,253.665909 
	C288.568512,253.665909 288.488953,253.704071 288.860504,253.670013 
	C289.798096,252.379410 290.364166,251.122894 290.930206,249.866364 
	C290.930206,249.866364 290.948944,249.962936 291.157715,249.863449 
	C291.569031,249.465286 291.771515,249.166626 291.974030,248.867950 
	C291.974030,248.867950 291.981232,248.978516 292.180786,248.866547 
	C292.571075,248.444656 292.761841,248.134750 292.952606,247.824829 
	C292.952606,247.824829 292.961670,247.962646 293.154938,247.855499 
	C293.550720,247.440460 293.753235,247.132599 293.955750,246.824738 
	C293.955750,246.824738 293.961426,246.961639 294.150879,246.864563 
	C294.555511,246.485229 294.770691,246.202957 294.985840,245.920715 
	C294.985870,245.920715 294.980316,245.991287 295.274048,245.937317 
	C295.804932,245.416412 296.042053,244.949478 296.279175,244.482544 
	C296.279175,244.482544 296.502777,244.323624 296.949036,244.525391 
	C297.851013,244.322815 298.306763,243.918457 298.762512,243.514099 
	C298.762512,243.514099 298.811310,243.676620 299.083679,243.746735 
	C299.827087,243.386124 300.298157,242.955383 300.769226,242.524658 
	C300.769226,242.524658 300.848938,242.667755 301.207092,242.775635 
	C304.690155,242.580215 307.814972,242.012833 310.939941,242.011765 
	C423.039825,241.973160 535.139709,241.990845 647.239563,241.960251 
	C648.826965,241.959824 650.414307,241.446930 652.001648,241.173218 
	C663.654846,242.931091 669.511780,250.786819 671.605713,262.940735 
	C671.209778,265.473419 671.028748,267.291321 671.025940,269.109467 
	C670.994629,289.067383 670.991089,309.025299 670.725037,329.261536 
	C669.214844,333.081818 671.668945,332.989471 673.911987,332.994568 
	C682.855225,333.014954 691.798584,332.965576 700.741577,333.007202 
	C712.525085,333.062012 724.618042,331.388397 735.109070,338.946045 
	C735.109070,338.946045 735.027893,338.964264 735.126953,339.175476 
	C735.521912,339.583954 735.817871,339.781219 736.113831,339.978455 
	C736.113831,339.978455 736.017761,339.982300 736.121765,340.186249 
	C736.521912,340.586517 736.817993,340.782837 737.114136,340.979126 
	C737.114136,340.979126 737.034363,340.971161 737.038574,341.232330 
	C737.569092,341.978394 738.095459,342.463287 738.621826,342.948151 
M664.459290,699.106812 
	C664.265808,699.389954 664.072327,699.673157 663.430664,700.054077 
	C663.115234,700.184204 662.937744,700.418640 662.245178,701.047913 
	C659.840942,702.047546 657.436768,703.047241 654.161621,704.032288 
	C651.206909,704.354004 648.252380,704.954834 645.297485,704.956787 
	C560.448181,705.011536 475.598846,705.013062 390.749573,704.967468 
	C388.819672,704.966431 386.890076,704.321716 384.345856,703.984192 
	C383.916718,704.572266 383.487610,705.160278 383.095245,706.716797 
	C383.067383,723.188721 383.039520,739.660706 383.128204,756.658936 
	C383.794769,756.795593 384.461304,756.932251 386.048035,757.021240 
	C492.304657,757.006592 598.561279,756.997437 704.817932,756.936768 
	C706.885986,756.935547 708.953613,756.328552 711.024231,755.501282 
	C711.080017,755.343262 711.135803,755.185181 711.716980,754.377625 
	C711.812866,752.888855 711.992493,751.400146 711.992676,749.911377 
	C712.005188,622.670837 712.007080,495.430359 711.968628,368.189850 
	C711.968079,366.433746 711.446472,364.677734 711.025879,362.530823 
	C711.025879,362.530823 711.019409,362.114899 710.452820,361.485107 
	C697.753296,361.357758 685.053772,361.230438 672.120178,361.444214 
	C671.755432,361.548676 671.390625,361.653168 671.010803,362.727264 
	C671.010315,365.225677 671.008911,367.724091 671.009338,370.222504 
	C671.028625,474.486847 671.048096,578.751160 670.986938,683.859558 
	C669.631409,688.218201 668.275940,692.576843 666.999390,696.999023 
	C666.999390,696.999023 666.936768,696.919312 666.354919,697.093689 
	C665.881836,697.712341 665.408752,698.330994 665.000977,698.997559 
	C665.000977,698.997559 664.955139,698.929993 664.459290,699.106812 
M317.662872,270.019531 
	C317.431824,270.267181 317.200745,270.514832 316.122650,270.596710 
	C316.000244,270.336365 315.877808,270.075989 315.381744,269.642242 
	C315.246216,272.741638 314.992523,275.841064 314.992157,278.940460 
	C314.976807,406.056244 315.004395,533.172058 314.917450,660.287781 
	C314.913879,665.514343 313.833679,670.737549 313.346802,675.970886 
	C313.301788,676.454773 313.925171,677.000854 314.563751,678.056030 
	C315.222687,676.748901 315.634979,675.931091 316.501923,675.021057 
	C316.501923,675.021057 316.940582,675.171997 317.613281,675.674988 
	C318.766357,675.783142 319.919434,675.985840 321.072510,675.986023 
	C426.167572,675.999268 531.262634,676.001526 636.357666,675.951660 
	C637.912537,675.950928 639.467102,675.288452 641.040100,674.461792 
	C641.040100,674.461792 641.192139,674.013611 641.688416,673.347717 
	C641.782837,672.192688 641.959778,671.037720 641.959900,669.882690 
	C641.975708,538.455933 641.982117,407.029205 641.936218,275.602478 
	C641.935730,274.057587 641.250427,272.512970 641.020874,271.022705 
	C641.020874,271.022705 640.980286,271.163666 640.782959,270.596771 
	C640.482666,270.344727 640.182434,270.092682 639.269470,269.326294 
	C637.951233,269.218353 636.633057,269.016083 635.314819,269.015900 
	C531.181030,269.001648 427.047302,268.999664 322.913544,269.037170 
	C321.318756,269.037750 319.724152,269.541382 317.662872,270.019531 
z"/>
<path fill="#090B0D" opacity="1.000000" stroke="none" 
	d="
M284.006104,682.002441 
	C283.670746,680.271057 283.042358,678.539856 283.041779,676.808350 
	C282.996307,540.257202 282.997498,403.706024 283.027527,267.154846 
	C283.027924,265.359772 283.441650,263.564728 284.081238,261.387634 
	C284.667084,261.004150 284.834137,261.002686 285.001221,261.001221 
	C285.001221,261.001221 285.000000,261.000000 285.012390,261.318665 
	C285.048798,261.848663 285.072815,262.059998 285.124878,262.552673 
	C285.178833,263.207672 285.204742,263.581360 285.140991,264.415283 
	C284.984497,269.260590 284.917633,273.645691 284.657776,278.182312 
	C284.593689,278.878998 284.722534,279.424133 284.927612,280.434387 
	C284.953613,289.277771 284.903442,297.656067 284.612671,306.312592 
	C284.532349,308.716003 284.692596,310.841187 284.929565,313.431580 
	C284.954346,327.941406 284.902405,341.985962 284.657715,356.182129 
	C284.593170,356.878876 284.721436,357.424011 284.924072,358.434570 
	C284.950989,384.277527 284.903503,409.655151 284.631104,435.256744 
	C284.554596,436.642639 284.703033,437.804535 284.926514,439.431885 
	C284.954803,459.941986 284.908051,479.986664 284.635254,500.255035 
	C284.558502,501.641785 284.707855,502.804810 284.933685,504.432373 
	C284.957886,510.609497 284.905609,516.322083 284.616821,522.299194 
	C284.537354,524.364075 284.694397,526.164490 284.927948,528.430176 
	C285.014374,541.198059 285.020142,553.500610 285.035065,565.803101 
	C285.081635,604.203613 285.131714,642.604126 285.110962,681.248047 
	C285.031036,681.659790 285.020477,681.828125 284.758942,681.996094 
	C284.340668,681.997864 284.173370,682.000183 284.006104,682.002441 
z"/>
<path fill="#010000" opacity="1.000000" stroke="none" 
	d="
M720.889343,786.031738 
	C719.117676,786.765442 717.289307,787.911865 715.456787,787.918518 
	C684.987854,788.029480 654.518433,787.997498 624.049072,787.997559 
	C542.631042,787.997742 461.212952,788.013977 379.795013,787.922668 
	C377.301422,787.919861 374.809113,786.798340 372.370850,785.753296 
	C372.932098,785.300842 373.438721,785.293518 373.945343,785.286194 
	C373.945343,785.286194 373.962128,785.132690 374.057312,785.458130 
	C375.104279,785.802429 376.056061,785.821350 377.470520,785.916321 
	C477.993256,785.999756 578.053284,786.017639 678.113281,786.002869 
	C692.421936,786.000793 706.730530,785.840637 721.039185,785.753601 
	C721.039185,785.753601 720.830750,785.914001 720.889343,786.031738 
z"/>
<path fill="#DAFFD1" opacity="1.000000" stroke="none" 
	d="
M285.230652,263.955017 
	C285.204742,263.581360 285.178833,263.207672 285.376648,262.428741 
	C285.667511,261.685272 285.734619,261.347107 285.801758,261.008911 
	C286.565796,258.733307 287.329834,256.457703 288.331177,253.923996 
	C288.044098,307.996582 287.215790,362.326385 287.064301,416.658112 
	C286.817413,505.229614 287.013702,593.802368 287.008698,682.374573 
	C287.008606,683.693665 286.823975,685.012695 286.458649,686.648438 
	C286.191803,686.965027 285.997498,686.859558 285.969177,686.565918 
	C285.630585,684.847046 285.320251,683.421814 285.009918,681.996521 
	C285.020477,681.828125 285.031036,681.659790 285.368347,680.925110 
	C285.787842,678.370239 285.961639,676.381592 285.961792,674.393005 
	C285.972137,539.350342 285.971405,404.307709 285.935669,269.265045 
	C285.935181,267.494965 285.475830,265.725037 285.230652,263.955017 
z"/>
<path fill="#F4FEE5" opacity="1.000000" stroke="none" 
	d="
M742.075378,763.810791 
	C741.618042,762.438782 741.069763,760.860718 741.069275,759.282593 
	C741.028381,625.225952 741.029175,491.169281 741.040833,357.112640 
	C741.040955,355.959595 741.229614,354.806580 741.614868,353.356293 
	C741.899536,353.059052 741.967712,352.919830 742.003479,353.395691 
	C742.029785,488.971100 742.019226,624.070679 742.027222,759.170227 
	C742.027344,760.481323 742.273865,761.792419 742.405273,763.103516 
	C742.350281,763.270630 742.295227,763.437744 742.075378,763.810791 
z"/>
<path fill="#315434" opacity="1.000000" stroke="none" 
	d="
M742.611450,763.102783 
	C742.273865,761.792419 742.027344,760.481323 742.027222,759.170227 
	C742.019226,624.070679 742.029785,488.971100 742.080322,353.405457 
	C742.391174,353.158447 742.660950,353.377533 742.990845,354.301086 
	C743.035706,461.163269 743.005066,567.320923 743.014771,673.478577 
	C743.017517,703.306274 743.138550,733.133911 743.205322,762.961609 
	C743.205322,762.961609 742.817627,763.101990 742.611450,763.102783 
z"/>
<path fill="#010000" opacity="1.000000" stroke="none" 
	d="
M743.444092,762.632263 
	C743.138550,733.133911 743.017517,703.306274 743.014771,673.478577 
	C743.005066,567.320923 743.035706,461.163269 743.090576,354.547546 
	C743.418396,355.842407 743.958679,357.595245 743.959167,359.348175 
	C743.998474,492.179840 743.996155,625.011536 743.982178,757.843201 
	C743.981995,759.329773 743.786987,760.816345 743.444092,762.632263 
z"/>
<path fill="#DAFFD1" opacity="1.000000" stroke="none" 
	d="
M651.677734,241.078568 
	C650.414307,241.446930 648.826965,241.959824 647.239563,241.960251 
	C535.139709,241.990845 423.039825,241.973160 310.939941,242.011765 
	C307.814972,242.012833 304.690155,242.580215 301.125336,242.780182 
	C302.530121,242.116058 304.374878,241.555267 307.065613,241.006592 
	C369.517914,241.013855 431.124176,241.021011 492.730438,241.000549 
	C544.512390,240.983353 596.294312,240.934036 648.402466,240.942551 
	C649.159607,240.925201 649.590576,240.864243 650.021545,240.803284 
	C650.465637,240.863495 650.909790,240.923706 651.677734,241.078568 
z"/>
<path fill="#B0F79E" opacity="1.000000" stroke="none" 
	d="
M648.076233,240.898956 
	C596.294312,240.934036 544.512390,240.983353 492.730438,241.000549 
	C431.124176,241.021011 369.517914,241.013855 307.445618,240.977020 
	C312.353485,240.629913 317.727386,240.324478 323.955200,240.007111 
	C325.863586,239.948792 326.917999,239.902420 327.972443,239.856018 
	C361.014435,239.910400 394.056458,239.964783 427.971100,240.005280 
	C430.220428,239.947357 431.597107,239.903290 432.973785,239.859238 
	C447.015198,239.911789 461.056641,239.964325 475.953613,240.004150 
	C477.863892,239.946243 478.918579,239.901062 479.973267,239.855881 
	C500.681763,239.911362 521.390259,239.966827 542.992920,240.010132 
	C545.915588,239.951645 547.944153,239.905319 549.972717,239.858994 
	C556.347961,239.912567 562.723145,239.966156 570.020996,240.008087 
	C575.286316,239.948807 579.629150,239.901184 583.971924,239.853577 
	C586.692200,239.907822 589.412537,239.962067 593.017090,240.005432 
	C596.258545,239.949570 598.615662,239.904572 600.972778,239.859558 
	C604.354004,239.913345 607.735168,239.967133 611.962036,240.009186 
	C613.862793,239.950989 614.917786,239.904541 615.972839,239.858093 
	C623.345642,239.915588 630.718506,239.973083 638.795654,240.010162 
	C639.500000,239.989746 639.981384,239.867783 639.981384,239.867783 
	C642.341431,239.924927 644.701416,239.982056 647.534912,240.276428 
	C648.008423,240.513657 648.076233,240.898956 648.076233,240.898956 
z"/>
<path fill="#DAFFD1" opacity="1.000000" stroke="none" 
	d="
M734.968262,338.633484 
	C724.618042,331.388397 712.525085,333.062012 700.741577,333.007202 
	C691.798584,332.965576 682.855225,333.014954 673.911987,332.994568 
	C671.668945,332.989471 669.214844,333.081818 670.812195,329.462311 
	C671.306519,329.641479 671.510742,329.846283 671.767029,329.999115 
	C672.984436,330.398041 674.199646,331.135986 675.419495,331.143585 
	C687.994019,331.221710 700.572449,331.004944 713.142944,331.239441 
	C720.999390,331.386017 728.857727,332.121796 734.968262,338.633484 
z"/>
<path fill="#F4FEE5" opacity="1.000000" stroke="none" 
	d="
M303.061646,704.477539 
	C320.188965,704.120300 337.504700,704.120300 354.781250,704.120300 
	C354.781250,724.717712 354.781250,745.461731 354.550415,766.534729 
	C354.143738,760.411377 353.852539,753.959717 353.815857,747.506653 
	C353.737823,733.777161 353.792023,720.046875 353.792023,705.948547 
	C338.908569,705.948547 324.186340,705.992004 309.464935,705.898987 
	C307.391144,705.885864 305.321533,705.205994 303.061646,704.477539 
z"/>
<path fill="#F4FEE5" opacity="1.000000" stroke="none" 
	d="
M671.877136,329.540771 
	C671.510742,329.846283 671.306519,329.641479 671.067200,329.184021 
	C670.991089,309.025299 670.994629,289.067383 671.025940,269.109467 
	C671.028748,267.291321 671.209778,265.473419 671.571533,263.336365 
	C671.885681,285.039032 671.936462,307.060699 671.877136,329.540771 
z"/>
<path fill="#010000" opacity="1.000000" stroke="none" 
	d="
M583.652893,239.599579 
	C579.629150,239.901184 575.286316,239.948807 570.485107,239.928436 
	C574.462402,239.688828 578.898132,239.517212 583.652893,239.599579 
z"/>
<path fill="#010000" opacity="1.000000" stroke="none" 
	d="
M284.758942,681.996094 
	C285.320251,683.421814 285.630585,684.847046 285.907837,686.657837 
	C285.251465,685.621948 284.628174,684.200500 284.005493,682.390747 
	C284.173370,682.000183 284.340668,681.997864 284.758942,681.996094 
z"/>
<path fill="#DAFFD1" opacity="1.000000" stroke="none" 
	d="
M364.869324,781.905640 
	C366.321289,782.287720 368.009094,782.839722 369.800690,783.744995 
	C369.904510,784.098267 369.854156,784.149292 369.547302,784.129395 
	C368.831757,784.097412 368.423004,784.085327 368.014282,784.073242 
	C367.044586,783.407410 366.074860,782.741516 364.869324,781.905640 
z"/>
<path fill="#010000" opacity="1.000000" stroke="none" 
	d="
M600.683105,239.614426 
	C598.615662,239.904572 596.258545,239.949570 593.464355,239.926559 
	C595.482666,239.695465 597.938110,239.532379 600.683105,239.614426 
z"/>
<path fill="#010000" opacity="1.000000" stroke="none" 
	d="
M549.694092,239.617249 
	C547.944153,239.905319 545.915588,239.951645 543.457031,239.929108 
	C545.156555,239.698685 547.286072,239.537094 549.694092,239.617249 
z"/>
<path fill="#010000" opacity="1.000000" stroke="none" 
	d="
M726.047363,784.995667 
	C726.348572,784.160522 726.839661,783.585083 727.651550,782.961487 
	C727.393921,783.693970 726.815552,784.474670 726.047363,784.995667 
z"/>
<path fill="#010000" opacity="1.000000" stroke="none" 
	d="
M648.402466,240.942551 
	C648.076233,240.898956 648.008423,240.513657 647.974854,240.320984 
	C648.983398,239.868484 650.025452,239.608658 651.067505,239.348816 
	C650.832336,239.695892 650.597229,240.042984 650.191772,240.596680 
	C649.590576,240.864243 649.159607,240.925201 648.402466,240.942551 
z"/>
<path fill="#DAFFD1" opacity="1.000000" stroke="none" 
	d="
M373.763977,784.958069 
	C373.438721,785.293518 372.932098,785.300842 372.183044,785.387573 
	C371.488098,785.305481 371.035583,785.143921 370.267151,784.774170 
	C369.951233,784.565918 369.854156,784.149292 369.854156,784.149292 
	C369.854156,784.149292 369.904510,784.098267 369.929871,784.072998 
	C371.164398,784.241821 372.373505,784.435852 373.763977,784.958069 
z"/>
<path fill="#DAFFD1" opacity="1.000000" stroke="none" 
	d="
M290.636108,250.015503 
	C290.364166,251.122894 289.798096,252.379410 288.848450,253.627563 
	C289.090546,252.467682 289.716278,251.316162 290.636108,250.015503 
z"/>
<path fill="#010000" opacity="1.000000" stroke="none" 
	d="
M432.726257,239.626953 
	C431.597107,239.903290 430.220428,239.947357 428.435181,239.923889 
	C429.510651,239.702454 430.994690,239.548569 432.726257,239.626953 
z"/>
<path fill="#DAFFD1" opacity="1.000000" stroke="none" 
	d="
M356.570862,772.729248 
	C357.189880,773.220886 357.949921,773.976135 358.540710,775.080933 
	C357.818207,774.617920 357.265045,773.805420 356.570862,772.729248 
z"/>
<path fill="#010000" opacity="1.000000" stroke="none" 
	d="
M479.747742,239.631027 
	C478.918579,239.901062 477.863892,239.946243 476.417938,239.924164 
	C477.191864,239.706650 478.357056,239.556412 479.747742,239.631027 
z"/>
<path fill="#DAFFD1" opacity="1.000000" stroke="none" 
	d="
M358.596863,775.806152 
	C359.266418,776.169800 360.097229,776.791321 360.929474,777.774780 
	C360.206665,777.445801 359.482391,776.754944 358.596863,775.806152 
z"/>
<path fill="#F4FEE5" opacity="1.000000" stroke="none" 
	d="
M299.932800,703.401001 
	C300.753662,703.402527 301.696320,703.650940 302.659668,704.225891 
	C301.805115,704.250916 300.929871,703.949341 299.932800,703.401001 
z"/>
<path fill="#010000" opacity="1.000000" stroke="none" 
	d="
M615.747498,239.632812 
	C614.917786,239.904541 613.862793,239.950989 612.416443,239.929092 
	C613.190796,239.709702 614.356506,239.558624 615.747498,239.632812 
z"/>
<path fill="#010000" opacity="1.000000" stroke="none" 
	d="
M327.747040,239.630981 
	C326.917999,239.902420 325.863586,239.948792 324.418091,239.927185 
	C325.191895,239.708099 326.356781,239.557022 327.747040,239.630981 
z"/>
<path fill="#DAFFD1" opacity="1.000000" stroke="none" 
	d="
M355.541077,770.350220 
	C355.893616,770.675781 356.312897,771.238953 356.571106,772.083313 
	C356.142639,771.772278 355.875244,771.179993 355.541077,770.350220 
z"/>
<path fill="#DAFFD1" opacity="1.000000" stroke="none" 
	d="
M738.554016,342.685364 
	C738.095459,342.463287 737.569092,341.978394 737.048096,341.193420 
	C737.531067,341.403076 738.008667,341.912842 738.554016,342.685364 
z"/>
<path fill="#DAFFD1" opacity="1.000000" stroke="none" 
	d="
M362.952759,780.334473 
	C363.402466,780.360107 363.950836,780.640076 364.416870,781.251770 
	C363.906799,781.251892 363.479095,780.920288 362.952759,780.334473 
z"/>
<path fill="#010000" opacity="1.000000" stroke="none" 
	d="
M369.547302,784.129395 
	C369.854156,784.149292 369.951233,784.565918 370.024750,784.766785 
	C369.530426,784.822266 368.962555,784.676819 368.204498,784.302368 
	C368.423004,784.085327 368.831757,784.097412 369.547302,784.129395 
z"/>
<path fill="#DAFFD1" opacity="1.000000" stroke="none" 
	d="
M300.474976,242.617249 
	C300.298157,242.955383 299.827087,243.386124 299.001404,243.725922 
	C299.158112,243.326614 299.669403,243.018219 300.474976,242.617249 
z"/>
<path fill="#DAFFD1" opacity="1.000000" stroke="none" 
	d="
M298.496643,243.597382 
	C298.306763,243.918457 297.851013,244.322815 297.082092,244.558624 
	C297.256165,244.153625 297.743439,243.917160 298.496643,243.597382 
z"/>
<path fill="#DAFFD1" opacity="1.000000" stroke="none" 
	d="
M296.090637,244.653412 
	C296.042053,244.949478 295.804932,245.416412 295.240417,245.926300 
	C295.242737,245.587616 295.572418,245.205963 296.090637,244.653412 
z"/>
<path fill="#010000" opacity="1.000000" stroke="none" 
	d="
M284.981567,260.758118 
	C284.834137,261.002686 284.667084,261.004150 284.249390,261.005249 
	C284.163269,260.587158 284.327759,260.169403 284.492249,259.751678 
	C284.648834,260.006134 284.805389,260.260590 284.981567,260.758118 
z"/>
<path fill="#DAFFD1" opacity="1.000000" stroke="none" 
	d="
M293.689575,246.923935 
	C293.753235,247.132599 293.550720,247.440460 293.085938,247.853333 
	C293.023560,247.646576 293.223480,247.334854 293.689575,246.923935 
z"/>
<path fill="#010000" opacity="1.000000" stroke="none" 
	d="
M722.951721,785.843262 
	C722.946594,785.640381 723.183472,785.386047 723.689331,785.163452 
	C723.781860,785.494568 723.527039,785.693420 722.951721,785.843262 
z"/>
<path fill="#DAFFD1" opacity="1.000000" stroke="none" 
	d="
M736.026123,339.715546 
	C735.817871,339.781219 735.521912,339.583954 735.123413,339.134033 
	C735.326660,339.071747 735.632568,339.262177 736.026123,339.715546 
z"/>
<path fill="#DAFFD1" opacity="1.000000" stroke="none" 
	d="
M737.026245,340.716187 
	C736.817993,340.782837 736.521912,340.586517 736.122986,340.138184 
	C736.326294,340.075226 736.632324,340.264252 737.026245,340.716187 
z"/>
<path fill="#010000" opacity="1.000000" stroke="none" 
	d="
M285.601257,261.005676 
	C285.734619,261.347107 285.667511,261.685272 285.348602,262.147400 
	C285.072815,262.059998 285.048798,261.848663 285.012207,261.318481 
	C284.999664,260.999664 285.400726,261.002472 285.601257,261.005676 
z"/>
<path fill="#DAFFD1" opacity="1.000000" stroke="none" 
	d="
M291.710144,248.960434 
	C291.771515,249.166626 291.569031,249.465286 291.108582,249.864929 
	C291.049194,249.661560 291.247742,249.357239 291.710144,248.960434 
z"/>
<path fill="#DAFFD1" opacity="1.000000" stroke="none" 
	d="
M292.689453,247.925720 
	C292.761841,248.134750 292.571075,248.444656 292.125366,248.866531 
	C292.055725,248.661194 292.240997,248.343887 292.689453,247.925720 
z"/>
<path fill="#DAFFD1" opacity="1.000000" stroke="none" 
	d="
M360.943298,778.301392 
	C361.157501,778.234131 361.464447,778.432068 361.866272,778.894409 
	C361.652740,778.961365 361.344391,778.763916 360.943298,778.301392 
z"/>
<path fill="#DAFFD1" opacity="1.000000" stroke="none" 
	d="
M294.712616,245.984650 
	C294.770691,246.202957 294.555511,246.485229 294.082458,246.860565 
	C294.029541,246.651978 294.234467,246.350296 294.712616,245.984650 
z"/>
<path fill="#010000" opacity="1.000000" stroke="none" 
	d="
M639.888550,239.727570 
	C639.981384,239.867783 639.500000,239.989746 639.259216,239.928955 
	C639.277527,239.774567 639.536682,239.680954 639.888550,239.727570 
z"/>
<path fill="#010000" opacity="1.000000" stroke="none" 
	d="
M287.169159,690.835205 
	C287.365814,690.844543 287.608521,691.119751 287.837402,691.680176 
	C287.620758,691.677307 287.417969,691.389221 287.169159,690.835205 
z"/>
<path fill="#DAFFD1" opacity="1.000000" stroke="none" 
	d="
M361.934692,779.310181 
	C362.152618,779.237244 362.465912,779.429016 362.868988,779.890137 
	C362.649200,779.964600 362.339661,779.769775 361.934692,779.310181 
z"/>
<path fill="#090B0D" opacity="1.000000" stroke="none" 
	d="
M662.898193,700.757507 
	C662.937744,700.418640 663.115234,700.184204 663.892029,699.902283 
	C664.553955,699.476990 664.754517,699.203491 664.955139,698.929993 
	C664.955139,698.929993 665.000977,698.997559 665.296753,698.940857 
	C666.040588,698.229187 666.488708,697.574280 666.936768,696.919312 
	C666.936768,696.919312 666.999390,696.999023 667.337280,696.976929 
	C669.468872,696.014404 671.262634,695.073914 672.911926,694.209167 
	C672.523254,690.079712 672.186890,686.505615 671.916382,682.694214 
	C671.982361,682.457031 672.170227,682.001953 672.547546,681.883545 
	C673.283264,679.730713 673.954102,677.696533 673.955139,675.661987 
	C674.006226,574.345276 673.999939,473.028534 674.000122,371.711823 
	C674.000122,370.378723 674.095642,369.037781 673.984619,367.714111 
	C673.746033,364.870667 675.037903,363.918243 677.798767,363.963715 
	C684.962280,364.081726 692.129089,363.995483 699.294556,364.003479 
	C704.130249,364.008881 708.975769,368.778534 708.987488,373.660614 
	C709.021362,387.772644 708.999878,401.884857 708.999878,415.996979 
	C708.999878,442.659271 709.017395,469.321594 708.974670,495.983826 
	C708.969971,498.928741 708.441040,501.874298 708.460327,504.817566 
	C708.580688,523.123291 708.799377,541.428467 708.924561,559.734192 
	C708.929626,560.472961 708.196655,561.189087 708.030701,561.963623 
	C707.811157,562.988403 707.620178,564.085999 707.757019,565.106689 
	C708.057983,567.351135 708.939819,569.566040 708.944946,571.794495 
	C709.023926,605.936279 709.000000,640.078308 709.000000,674.220276 
	C709.000000,697.883057 709.000671,721.545898 708.999573,745.208679 
	C708.999207,752.995850 708.997131,752.999756 701.434937,753.000183 
	C667.440491,753.001953 633.446106,753.001770 599.451660,753.001587 
	C530.629578,753.001282 461.807434,752.951904 392.985748,753.104309 
	C388.156219,753.114990 386.741302,751.773743 386.890656,746.974548 
	C387.232544,735.986938 387.239044,724.973816 386.888519,713.986816 
	C386.733643,709.133179 388.249176,707.875427 393.025970,707.895752 
	C435.184937,708.075378 477.345001,708.000000 519.504761,708.000000 
	C560.831299,708.000000 602.157959,708.023987 643.484253,707.920898 
	C645.324890,707.916321 647.162720,706.755127 649.313965,706.046753 
	C650.054199,705.909180 650.482239,705.857605 651.047791,706.098022 
	C655.117065,707.426025 661.417236,704.396423 662.898193,700.757507 
z"/>
<path fill="#080C09" opacity="1.000000" stroke="none" 
	d="
M649.001831,706.132690 
	C647.162720,706.755127 645.324890,707.916321 643.484253,707.920898 
	C602.157959,708.023987 560.831299,708.000000 519.504761,708.000000 
	C477.345001,708.000000 435.184937,708.075378 393.025970,707.895752 
	C388.249176,707.875427 386.733643,709.133179 386.888519,713.986816 
	C387.239044,724.973816 387.232544,735.986938 386.890656,746.974548 
	C386.741302,751.773743 388.156219,753.114990 392.985748,753.104309 
	C461.807434,752.951904 530.629578,753.001282 599.451660,753.001587 
	C633.446106,753.001770 667.440491,753.001953 701.434937,753.000183 
	C708.997131,752.999756 708.999207,752.995850 708.999573,745.208679 
	C709.000671,721.545898 709.000000,697.883057 709.000000,674.220276 
	C709.000000,640.078308 709.023926,605.936279 708.944946,571.794495 
	C708.939819,569.566040 708.057983,567.351135 707.757019,565.106689 
	C707.620178,564.085999 707.811157,562.988403 708.030701,561.963623 
	C708.196655,561.189087 708.929626,560.472961 708.924561,559.734192 
	C708.799377,541.428467 708.580688,523.123291 708.460327,504.817566 
	C708.441040,501.874298 708.969971,498.928741 708.974670,495.983826 
	C709.017395,469.321594 708.999878,442.659271 708.999878,415.996979 
	C708.999878,401.884857 709.021362,387.772644 708.987488,373.660614 
	C708.975769,368.778534 704.130249,364.008881 699.294556,364.003479 
	C692.129089,363.995483 684.962280,364.081726 677.798767,363.963715 
	C675.037903,363.918243 673.746033,364.870667 673.984619,367.714111 
	C674.095642,369.037781 674.000122,370.378723 674.000122,371.711823 
	C673.999939,473.028534 674.006226,574.345276 673.955139,675.661987 
	C673.954102,677.696533 673.283264,679.730713 672.469788,681.421021 
	C672.007080,576.644836 672.004822,472.212646 671.951599,367.780487 
	C671.950562,365.772675 671.347900,363.765198 671.025879,361.757629 
	C671.390625,361.653168 671.755432,361.548676 672.557495,361.617676 
	C685.669617,361.899078 698.344543,362.006989 711.019409,362.114929 
	C711.019409,362.114899 711.025879,362.530823 711.020630,363.200134 
	C711.011902,468.781708 710.996460,573.693970 711.013611,678.606262 
	C711.017761,704.079895 711.129395,729.553467 711.191650,755.027100 
	C711.135803,755.185181 711.080017,755.343262 710.553162,755.717285 
	C707.918884,755.900635 705.755676,755.839417 703.592468,755.839355 
	C632.014709,755.837341 560.436951,755.827271 488.859161,755.850342 
	C454.239502,755.861511 419.619843,755.936768 385.012512,755.667480 
	C384.935089,755.161499 384.845367,754.970947 384.714783,754.560913 
	C384.579163,754.049744 384.569092,753.755188 384.809875,752.980957 
	C384.985870,736.984558 384.995728,721.464905 385.473633,705.963135 
	C438.689117,705.978027 491.436584,705.954834 544.184082,705.979065 
	C579.123352,705.995117 614.062561,706.079102 649.001831,706.132690 
z"/>
<path fill="#040705" opacity="1.000000" stroke="none" 
	d="
M316.940582,675.171997 
	C316.940582,675.171997 316.501923,675.021057 316.199402,674.594543 
	C315.928009,670.678772 315.981293,667.189575 315.986908,663.700256 
	C316.043396,628.467651 316.092072,593.235107 316.523499,558.114624 
	C317.269775,560.089661 317.950958,561.951904 317.954437,563.815491 
	C318.018585,598.142700 318.121735,632.470947 317.873444,666.796509 
	C317.835938,671.983093 319.326202,673.114136 324.306702,673.107117 
	C427.121887,672.961853 529.937439,672.959045 632.752563,673.115173 
	C637.842224,673.122925 639.120422,671.810608 639.114685,666.740845 
	C638.969116,537.763489 639.000549,408.785950 638.998230,279.808441 
	C638.998047,273.008942 638.986267,273.000214 631.959290,273.000092 
	C529.477173,272.998352 426.995056,272.998596 324.512939,273.000214 
	C318.005615,273.000336 318.001038,273.007446 318.000824,279.496429 
	C317.999634,316.156708 318.027740,352.817078 317.922089,389.477051 
	C317.916809,391.318665 316.761169,393.156921 316.070435,394.533081 
	C315.997467,361.629089 316.011871,329.188812 315.982178,296.748535 
	C315.973938,287.770844 315.834564,278.793274 315.755371,269.815643 
	C315.877808,270.075989 316.000244,270.336365 317.004150,270.808472 
	C362.663330,271.031586 407.440979,271.035370 452.218658,271.056183 
	C515.139221,271.085388 578.059753,271.127228 640.980286,271.163666 
	C640.980286,271.163666 641.020874,271.022705 641.003052,271.466522 
	C640.984924,400.455353 640.981995,529.000366 640.993042,657.545349 
	C640.993469,663.034790 641.122864,668.524170 641.192139,674.013611 
	C641.192139,674.013611 641.040100,674.461792 640.561646,674.745239 
	C565.996338,675.026733 491.909515,675.009521 417.822662,675.029785 
	C384.195312,675.038940 350.567932,675.122314 316.940582,675.171997 
z"/>
<path fill="#DAFFD1" opacity="1.000000" stroke="none" 
	d="
M316.142975,558.002502 
	C316.092072,593.235107 316.043396,628.467651 315.986908,663.700256 
	C315.981293,667.189575 315.928009,670.678772 315.972076,674.640625 
	C315.634979,675.931091 315.222687,676.748901 314.563751,678.056030 
	C313.925171,677.000854 313.301788,676.454773 313.346802,675.970886 
	C313.833679,670.737549 314.913879,665.514343 314.917450,660.287781 
	C315.004395,533.172058 314.976807,406.056244 314.992157,278.940460 
	C314.992523,275.841064 315.246216,272.741638 315.568542,269.728943 
	C315.834564,278.793274 315.973938,287.770844 315.982178,296.748535 
	C316.011871,329.188812 315.997467,361.629089 315.994324,394.864532 
	C316.039734,396.107422 316.090576,396.555145 316.070923,397.466705 
	C316.048309,436.953003 316.096161,475.975464 316.067322,515.369507 
	C316.041473,516.494690 316.092316,517.248291 316.073120,518.465820 
	C316.049683,531.285828 316.096252,543.641785 316.066956,556.329102 
	C316.041748,557.107788 316.092346,557.555115 316.142975,558.002502 
z"/>
<path fill="#F4FEE5" opacity="1.000000" stroke="none" 
	d="
M641.440308,673.680664 
	C641.122864,668.524170 640.993469,663.034790 640.993042,657.545349 
	C640.981995,529.000366 640.984924,400.455353 640.934998,271.439270 
	C641.250427,272.512970 641.935730,274.057587 641.936218,275.602478 
	C641.982117,407.029205 641.975708,538.455933 641.959900,669.882690 
	C641.959778,671.037720 641.782837,672.192688 641.440308,673.680664 
z"/>
<path fill="#F4FEE5" opacity="1.000000" stroke="none" 
	d="
M711.454285,754.702393 
	C711.129395,729.553467 711.017761,704.079895 711.013611,678.606262 
	C710.996460,573.693970 711.011902,468.781708 711.091675,363.395569 
	C711.446472,364.677734 711.968079,366.433746 711.968628,368.189850 
	C712.007080,495.430359 712.005188,622.670837 711.992676,749.911377 
	C711.992493,751.400146 711.812866,752.888855 711.454285,754.702393 
z"/>
<path fill="#F4FEE5" opacity="1.000000" stroke="none" 
	d="
M720.700806,785.511414 
	C706.730530,785.840637 692.421936,786.000793 678.113281,786.002869 
	C578.053284,786.017639 477.993256,785.999756 377.469727,785.713745 
	C377.006256,785.435181 377.018982,785.030334 377.018982,785.030334 
	C387.722076,785.012451 398.425201,784.994568 410.003296,784.966919 
	C412.227661,784.937927 413.577057,784.918701 414.926422,784.899536 
	C434.325806,784.921814 453.725220,784.944031 473.906494,784.954956 
	C475.103882,784.926758 475.519318,784.909912 475.934784,784.893066 
	C479.006104,784.919922 482.077423,784.946716 485.965027,784.964661 
	C487.498138,784.936768 488.214966,784.917847 488.931824,784.898865 
	C491.342957,784.924316 493.754089,784.949829 496.973236,784.966125 
	C498.498535,784.938293 499.215820,784.919617 499.933105,784.901001 
	C500.715576,784.924683 501.498077,784.948303 502.983093,784.962402 
	C504.103302,784.935608 504.520905,784.918457 504.938538,784.901367 
	C516.335632,784.926575 527.732788,784.951843 540.056213,784.969238 
	C544.962830,784.941345 548.943054,784.921448 552.923340,784.901550 
	C555.338867,784.926636 557.754456,784.951721 561.066223,784.968262 
	C564.949829,784.940796 567.937256,784.921692 570.924622,784.902649 
	C611.653198,784.927673 652.381714,784.952637 693.804810,784.957520 
	C694.499268,784.937439 694.947876,784.901062 694.947876,784.901062 
	C703.419373,785.023804 711.890869,785.146484 720.700806,785.511414 
z"/>
<path fill="#F4FEE5" opacity="1.000000" stroke="none" 
	d="
M385.000183,755.983032 
	C419.619843,755.936768 454.239502,755.861511 488.859161,755.850342 
	C560.436951,755.827271 632.014709,755.837341 703.592468,755.839355 
	C705.755676,755.839417 707.918884,755.900635 710.551758,755.968750 
	C708.953613,756.328552 706.885986,756.935547 704.817932,756.936768 
	C598.561279,756.997437 492.304657,757.006592 385.544891,756.774536 
	C385.027893,756.346252 385.014038,756.164673 385.000183,755.983032 
z"/>
<path fill="#F4FEE5" opacity="1.000000" stroke="none" 
	d="
M317.276917,675.423462 
	C350.567932,675.122314 384.195312,675.038940 417.822662,675.029785 
	C491.909515,675.009521 565.996338,675.026733 640.552490,674.981689 
	C639.467102,675.288452 637.912537,675.950928 636.357666,675.951660 
	C531.262634,676.001526 426.167572,675.999268 321.072510,675.986023 
	C319.919434,675.985840 318.766357,675.783142 317.276917,675.423462 
z"/>
<path fill="#F4FEE5" opacity="1.000000" stroke="none" 
	d="
M640.881592,270.880219 
	C578.059753,271.127228 515.139221,271.085388 452.218658,271.056183 
	C407.440979,271.035370 362.663330,271.031586 317.427673,270.891357 
	C317.200745,270.514832 317.431824,270.267181 318.347900,269.972748 
	C381.337677,269.939270 443.642456,269.971619 505.947235,269.959442 
	C550.592224,269.950714 595.237183,269.882385 639.882141,269.840637 
	C640.182434,270.092682 640.482666,270.344727 640.881592,270.880219 
z"/>
<path fill="#B0F79E" opacity="1.000000" stroke="none" 
	d="
M639.575806,269.583466 
	C595.237183,269.882385 550.592224,269.950714 505.947235,269.959442 
	C443.642456,269.971619 381.337677,269.939270 318.581177,269.868103 
	C319.724152,269.541382 321.318756,269.037750 322.913544,269.037170 
	C427.047302,268.999664 531.181030,269.001648 635.314819,269.015900 
	C636.633057,269.016083 637.951233,269.218353 639.575806,269.583466 
z"/>
<path fill="#F4FEE5" opacity="1.000000" stroke="none" 
	d="
M671.018372,362.242432 
	C671.347900,363.765198 671.950562,365.772675 671.951599,367.780487 
	C672.004822,472.212646 672.007080,576.644836 672.092468,681.539490 
	C672.170227,682.001953 671.982361,682.457031 671.720581,682.714478 
	C671.458801,682.971985 671.067505,683.015503 671.067505,683.015503 
	C671.048096,578.751160 671.028625,474.486847 671.009338,370.222504 
	C671.008911,367.724091 671.010315,365.225677 671.018372,362.242432 
z"/>
<path fill="#F4FEE5" opacity="1.000000" stroke="none" 
	d="
M649.313965,706.046753 
	C614.062561,706.079102 579.123352,705.995117 544.184082,705.979065 
	C491.436584,705.954834 438.689117,705.978027 385.479187,705.633423 
	C384.997955,704.849609 384.979156,704.413391 384.960358,703.977234 
	C386.890076,704.321716 388.819672,704.966431 390.749573,704.967468 
	C475.598846,705.013062 560.448181,705.011536 645.297485,704.956787 
	C648.252380,704.954834 651.206909,704.354004 654.448364,704.361389 
	C653.460144,705.062317 652.185242,705.434143 650.910339,705.806030 
	C650.482239,705.857605 650.054199,705.909180 649.313965,706.046753 
z"/>
<path fill="#F4FEE5" opacity="1.000000" stroke="none" 
	d="
M384.643677,753.457703 
	C384.569092,753.755188 384.579163,754.049744 384.457886,754.675171 
	C383.831787,755.383545 383.421692,755.758057 383.011658,756.132568 
	C383.039520,739.660706 383.067383,723.188721 383.415894,706.526855 
	C383.885498,708.463806 384.137421,710.589233 384.166656,712.717712 
	C384.352997,726.297302 384.490265,739.877625 384.643677,753.457703 
z"/>
<path fill="#315434" opacity="1.000000" stroke="none" 
	d="
M384.809845,752.980957 
	C384.490265,739.877625 384.352997,726.297302 384.166656,712.717712 
	C384.137421,710.589233 383.885498,708.463806 383.397522,706.042664 
	C383.487610,705.160278 383.916718,704.572266 384.653107,703.980713 
	C384.979156,704.413391 384.997955,704.849609 385.011169,705.615479 
	C384.995728,721.464905 384.985870,736.984558 384.809845,752.980957 
z"/>
<path fill="#080C09" opacity="1.000000" stroke="none" 
	d="
M671.027222,683.437500 
	C671.067505,683.015503 671.458801,682.971985 671.654663,682.951721 
	C672.186890,686.505615 672.523254,690.079712 672.911926,694.209167 
	C671.262634,695.073914 669.468872,696.014404 667.297729,696.945190 
	C668.275940,692.576843 669.631409,688.218201 671.027222,683.437500 
z"/>
<path fill="#F4FEE5" opacity="1.000000" stroke="none" 
	d="
M710.736084,361.800018 
	C698.344543,362.006989 685.669617,361.899078 672.674500,361.447144 
	C685.053772,361.230438 697.753296,361.357758 710.736084,361.800018 
z"/>
<path fill="#080C09" opacity="1.000000" stroke="none" 
	d="
M651.047791,706.098022 
	C652.185242,705.434143 653.460144,705.062317 654.883789,704.368652 
	C657.436768,703.047241 659.840942,702.047546 662.571655,700.902710 
	C661.417236,704.396423 655.117065,707.426025 651.047791,706.098022 
z"/>
<path fill="#B0F79E" opacity="1.000000" stroke="none" 
	d="
M552.625488,784.633423 
	C548.943054,784.921448 544.962830,784.941345 540.528320,784.933472 
	C544.158569,784.725525 548.243164,784.545471 552.625488,784.633423 
z"/>
<path fill="#B0F79E" opacity="1.000000" stroke="none" 
	d="
M570.637329,784.638672 
	C567.937256,784.921692 564.949829,784.940796 561.517700,784.933472 
	C564.165344,784.729675 567.257690,784.552185 570.637329,784.638672 
z"/>
<path fill="#315434" opacity="1.000000" stroke="none" 
	d="
M383.069916,756.395752 
	C383.421692,755.758057 383.831787,755.383545 384.498779,754.894714 
	C384.845367,754.970947 384.935089,755.161499 385.012512,755.667480 
	C385.014038,756.164673 385.027893,756.346252 385.084778,756.798340 
	C384.461304,756.932251 383.794769,756.795593 383.069916,756.395752 
z"/>
<path fill="#B0F79E" opacity="1.000000" stroke="none" 
	d="
M414.694153,784.655579 
	C413.577057,784.918701 412.227661,784.937927 410.475220,784.930054 
	C411.535370,784.739136 412.998596,784.575378 414.694153,784.655579 
z"/>
<path fill="#080C09" opacity="1.000000" stroke="none" 
	d="
M666.645874,697.006470 
	C666.488708,697.574280 666.040588,698.229187 665.264099,698.916870 
	C665.408752,698.330994 665.881836,697.712341 666.645874,697.006470 
z"/>
<path fill="#B0F79E" opacity="1.000000" stroke="none" 
	d="
M488.750732,784.674316 
	C488.214966,784.917847 487.498138,784.936768 486.424072,784.928162 
	C486.901123,784.750305 487.735413,784.599976 488.750732,784.674316 
z"/>
<path fill="#B0F79E" opacity="1.000000" stroke="none" 
	d="
M499.752075,784.675903 
	C499.215820,784.919617 498.498535,784.938293 497.423828,784.929871 
	C497.901276,784.752136 498.736145,784.601501 499.752075,784.675903 
z"/>
<path fill="#DAFFD1" opacity="1.000000" stroke="none" 
	d="
M376.617615,785.011292 
	C377.018982,785.030334 377.006256,785.435181 377.007050,785.637695 
	C376.056061,785.821350 375.104279,785.802429 373.980408,785.464722 
	C374.610962,785.094727 375.413605,785.043518 376.617615,785.011292 
z"/>
<path fill="#B0F79E" opacity="1.000000" stroke="none" 
	d="
M504.798523,784.700439 
	C504.520905,784.918457 504.103302,784.935608 503.373383,784.927368 
	C503.593567,784.767822 504.126068,784.633667 504.798523,784.700439 
z"/>
<path fill="#B0F79E" opacity="1.000000" stroke="none" 
	d="
M475.795349,784.694214 
	C475.519318,784.909912 475.103882,784.926758 474.377930,784.916382 
	C474.596924,784.757751 475.126404,784.626526 475.795349,784.694214 
z"/>
<path fill="#B0F79E" opacity="1.000000" stroke="none" 
	d="
M694.865662,784.760620 
	C694.947876,784.901062 694.499268,784.937439 694.275269,784.919922 
	C694.213196,784.520935 694.457275,784.426880 694.865662,784.760620 
z"/>
<path fill="#080C09" opacity="1.000000" stroke="none" 
	d="
M664.707214,699.018433 
	C664.754517,699.203491 664.553955,699.476990 664.116089,699.853394 
	C664.072327,699.673157 664.265808,699.389954 664.707214,699.018433 
z"/>
<path fill="#9BD094" opacity="1.000000" stroke="none" 
	d="
M285.140991,264.415283 
	C285.475830,265.725037 285.935181,267.494965 285.935669,269.265045 
	C285.971405,404.307709 285.972137,539.350342 285.961792,674.393005 
	C285.961639,676.381592 285.787842,678.370239 285.437744,680.681763 
	C285.131714,642.604126 285.081635,604.203613 285.035065,565.803101 
	C285.020142,553.500610 285.014374,541.198059 284.990417,528.010010 
	C284.935364,525.427795 284.894348,523.731262 284.853333,522.034668 
	C284.905609,516.322083 284.957886,510.609497 284.997803,504.041809 
	C284.944031,502.134918 284.902679,501.083130 284.861298,500.031311 
	C284.908051,479.986664 284.954803,459.941986 284.990448,439.041626 
	C284.938232,437.134827 284.897125,436.083801 284.856018,435.032745 
	C284.903503,409.655151 284.950989,384.277527 284.985657,358.113403 
	C284.932068,356.894775 284.891266,356.462646 284.850464,356.030548 
	C284.902405,341.985962 284.954346,327.941406 284.992004,313.001617 
	C284.936249,310.082397 284.894775,308.058350 284.853333,306.034332 
	C284.903442,297.656067 284.953613,289.277771 284.988770,280.113220 
	C284.932739,278.894867 284.891754,278.462799 284.850769,278.030762 
	C284.917633,273.645691 284.984497,269.260590 285.140991,264.415283 
z"/>
<path fill="#010000" opacity="1.000000" stroke="none" 
	d="
M284.612701,306.312592 
	C284.894775,308.058350 284.936249,310.082397 284.915283,312.536377 
	C284.692596,310.841187 284.532349,308.716003 284.612701,306.312592 
z"/>
<path fill="#010000" opacity="1.000000" stroke="none" 
	d="
M284.616791,522.299194 
	C284.894348,523.731262 284.935364,525.427795 284.913940,527.544617 
	C284.694397,526.164490 284.537354,524.364075 284.616791,522.299194 
z"/>
<path fill="#010000" opacity="1.000000" stroke="none" 
	d="
M284.635254,500.255035 
	C284.902679,501.083130 284.944031,502.134918 284.921326,503.577271 
	C284.707855,502.804810 284.558502,501.641785 284.635254,500.255035 
z"/>
<path fill="#010000" opacity="1.000000" stroke="none" 
	d="
M284.631104,435.256744 
	C284.897125,436.083801 284.938232,437.134827 284.915405,438.576172 
	C284.703033,437.804535 284.554596,436.642639 284.631104,435.256744 
z"/>
<path fill="#010000" opacity="1.000000" stroke="none" 
	d="
M284.657776,278.182312 
	C284.891754,278.462799 284.932739,278.894867 284.912567,279.648071 
	C284.722534,279.424133 284.593689,278.878998 284.657776,278.182312 
z"/>
<path fill="#010000" opacity="1.000000" stroke="none" 
	d="
M284.657684,356.182129 
	C284.891266,356.462646 284.932068,356.894775 284.911285,357.648010 
	C284.721436,357.424011 284.593170,356.878876 284.657684,356.182129 
z"/>
<path fill="#090A0D" opacity="1.000000" stroke="none" 
	d="
M316.143127,518.001831 
	C316.092316,517.248291 316.041473,516.494690 316.447754,515.257202 
	C317.269684,513.580017 317.951508,512.387390 317.953369,511.193695 
	C318.010040,474.465790 318.019714,437.737671 317.922119,401.009949 
	C317.918579,399.672668 316.761108,398.338501 316.141418,397.002869 
	C316.090576,396.555145 316.039734,396.107422 316.065002,395.328247 
	C316.761169,393.156921 317.916809,391.318665 317.922089,389.477051 
	C318.027740,352.817078 317.999634,316.156708 318.000824,279.496429 
	C318.001038,273.007446 318.005615,273.000336 324.512939,273.000214 
	C426.995056,272.998596 529.477173,272.998352 631.959290,273.000092 
	C638.986267,273.000214 638.998047,273.008942 638.998230,279.808441 
	C639.000549,408.785950 638.969116,537.763489 639.114685,666.740845 
	C639.120422,671.810608 637.842224,673.122925 632.752563,673.115173 
	C529.937439,672.959045 427.121887,672.961853 324.306702,673.107117 
	C319.326202,673.114136 317.835938,671.983093 317.873444,666.796509 
	C318.121735,632.470947 318.018585,598.142700 317.954437,563.815491 
	C317.950958,561.951904 317.269775,560.089661 316.523499,558.114624 
	C316.092346,557.555115 316.041748,557.107788 316.447449,556.216797 
	C317.263031,555.083618 317.931000,554.396057 317.935455,553.704163 
	C318.005737,542.799866 318.039001,531.894470 317.914520,520.991211 
	C317.903076,519.988159 316.760468,518.997986 316.143127,518.001831 
z"/>
<path fill="#040705" opacity="1.000000" stroke="none" 
	d="
M316.070923,397.466705 
	C316.761108,398.338501 317.918579,399.672668 317.922119,401.009949 
	C318.019714,437.737671 318.010040,474.465790 317.953369,511.193695 
	C317.951508,512.387390 317.269684,513.580017 316.524414,514.885559 
	C316.096161,475.975464 316.048309,436.953003 316.070923,397.466705 
z"/>
<path fill="#040705" opacity="1.000000" stroke="none" 
	d="
M316.073120,518.465820 
	C316.760468,518.997986 317.903076,519.988159 317.914520,520.991211 
	C318.039001,531.894470 318.005737,542.799866 317.935455,553.704163 
	C317.931000,554.396057 317.263031,555.083618 316.523285,555.885498 
	C316.096252,543.641785 316.049683,531.285828 316.073120,518.465820 
z"/>
</svg>